<?xml version="1.0" encoding="utf-8" standalone="no"?>
<!DOCTYPE svg PUBLIC "-//W3C//DTD SVG 1.1//EN"
  "http://www.w3.org/Graphics/SVG/1.1/DTD/svg11.dtd">
<svg xmlns:xlink="http://www.w3.org/1999/xlink" width="273.6pt" height="295.488pt" viewBox="0 0 273.6 295.488" xmlns="http://www.w3.org/2000/svg" version="1.1">
 <metadata>
  <rdf:RDF xmlns:dc="http://purl.org/dc/elements/1.1/" xmlns:cc="http://creativecommons.org/ns#" xmlns:rdf="http://www.w3.org/1999/02/22-rdf-syntax-ns#">
   <cc:Work>
    <dc:type rdf:resource="http://purl.org/dc/dcmitype/StillImage"/>
    <dc:date>2023-01-23T15:53:47.151057</dc:date>
    <dc:format>image/svg+xml</dc:format>
    <dc:creator>
     <cc:Agent>
      <dc:title>Matplotlib v3.6.3, https://matplotlib.org/</dc:title>
     </cc:Agent>
    </dc:creator>
   </cc:Work>
  </rdf:RDF>
 </metadata>
 <defs>
  <style type="text/css">*{stroke-linejoin: round; stroke-linecap: butt}</style>
 </defs>
 <g id="figure_1">
  <g id="patch_1">
   <path d="M 0 295.488 
L 273.6 295.488 
L 273.6 0 
L 0 0 
z
" style="fill: #ffffff"/>
  </g>
  <g id="axes_1">
   <g id="patch_2">
    <path d="M 47.81 247.219 
L 262.8 247.219 
L 262.8 32.229 
L 47.81 32.229 
z
" style="fill: #ffffff"/>
   </g>
   <g id="PolyCollection_1">
    <path d="M 57.582273 92.987043 
L 57.582273 160.458351 
L 57.777914 160.458351 
L 57.973555 160.458351 
L 58.169196 160.458351 
L 58.364837 160.458351 
L 58.560478 160.458351 
L 58.756119 160.458351 
L 58.95176 160.458351 
L 59.147401 160.458351 
L 59.343043 160.458351 
L 59.538684 160.458351 
L 59.734325 160.458351 
L 59.929966 160.458351 
L 60.125607 160.458351 
L 60.321248 160.458351 
L 60.516889 159.723112 
L 60.71253 158.349203 
L 60.908171 157.502099 
L 61.103812 156.383333 
L 61.299454 156.198211 
L 61.495095 156.198211 
L 61.690736 156.198211 
L 61.886377 156.198211 
L 62.082018 156.198211 
L 62.277659 156.198211 
L 62.4733 156.198211 
L 62.668941 156.198211 
L 62.864582 155.856947 
L 63.060223 154.846638 
L 63.255865 153.391672 
L 63.451506 151.812019 
L 63.647147 150.346036 
L 63.842788 149.127128 
L 64.038429 148.607884 
L 64.23407 148.607884 
L 64.429711 147.774149 
L 64.625352 147.591373 
L 64.820993 147.087739 
L 65.016634 147.053861 
L 65.212275 146.928493 
L 65.407917 146.551434 
L 65.603558 146.551434 
L 65.799199 146.390787 
L 65.99484 145.593471 
L 66.190481 144.17123 
L 66.386122 143.800206 
L 66.581763 142.772588 
L 66.777404 139.749717 
L 66.973045 139.724 
L 67.168686 138.653442 
L 67.364328 136.892049 
L 67.559969 136.892049 
L 67.75561 136.892049 
L 67.951251 136.579305 
L 68.146892 135.502597 
L 68.342533 135.383128 
L 68.538174 135.284526 
L 68.733815 135.242325 
L 68.929456 133.228313 
L 69.125097 133.209152 
L 69.320738 131.286366 
L 69.51638 130.42307 
L 69.712021 129.841926 
L 69.907662 129.549743 
L 70.103303 129.107614 
L 70.298944 129.107614 
L 70.494585 128.630689 
L 70.690226 128.176742 
L 70.885867 127.911363 
L 71.081508 127.761787 
L 71.277149 127.514891 
L 71.472791 127.514891 
L 71.668432 127.203276 
L 71.864073 126.983005 
L 72.059714 126.977557 
L 72.255355 126.327739 
L 72.450996 125.450466 
L 72.646637 123.770429 
L 72.842278 123.770429 
L 73.037919 123.619693 
L 73.23356 123.284126 
L 73.429201 123.284126 
L 73.624843 122.742415 
L 73.820484 122.742415 
L 74.016125 122.249074 
L 74.211766 122.136481 
L 74.407407 122.136481 
L 74.603048 121.960673 
L 74.798689 121.960673 
L 74.99433 121.477921 
L 75.189971 121.477921 
L 75.385612 119.73035 
L 75.581254 119.73035 
L 75.776895 119.373684 
L 75.972536 118.869068 
L 76.168177 118.861845 
L 76.363818 118.392284 
L 76.559459 117.180044 
L 76.7551 117.180044 
L 76.950741 116.678498 
L 77.146382 116.461913 
L 77.342023 116.461913 
L 77.537664 115.895353 
L 77.733306 115.031561 
L 77.928947 114.152325 
L 78.124588 113.67624 
L 78.320229 111.364144 
L 78.51587 111.297003 
L 78.711511 108.598336 
L 78.907152 108.598336 
L 79.102793 107.812248 
L 79.298434 107.812248 
L 79.494075 107.812248 
L 79.689717 107.812248 
L 79.885358 107.812248 
L 80.080999 107.149758 
L 80.27664 107.149758 
L 80.472281 107.149758 
L 80.667922 107.149758 
L 80.863563 107.149758 
L 81.059204 106.51456 
L 81.254845 105.70606 
L 81.450486 104.995832 
L 81.646127 104.978141 
L 81.841769 104.826904 
L 82.03741 103.741463 
L 82.233051 103.741463 
L 82.428692 103.741463 
L 82.624333 103.611874 
L 82.819974 102.949913 
L 83.015615 102.949913 
L 83.211256 102.810028 
L 83.406897 100.427238 
L 83.602538 100.001075 
L 83.79818 100.001075 
L 83.993821 99.374034 
L 84.189462 99.374034 
L 84.385103 99.008484 
L 84.580744 98.750069 
L 84.776385 97.563187 
L 84.972026 97.563187 
L 85.167667 96.210463 
L 85.363308 96.210463 
L 85.558949 95.520574 
L 85.75459 95.520574 
L 85.950232 95.520574 
L 86.145873 95.111451 
L 86.341514 94.938843 
L 86.537155 94.629033 
L 86.732796 94.629033 
L 86.928437 94.629033 
L 87.124078 94.542394 
L 87.319719 93.019157 
L 87.51536 93.019157 
L 87.711001 92.900739 
L 87.906643 92.519371 
L 88.102284 92.44058 
L 88.297925 91.915654 
L 88.493566 91.915654 
L 88.689207 91.915654 
L 88.884848 91.390098 
L 89.080489 91.390098 
L 89.27613 89.776828 
L 89.471771 89.776828 
L 89.667412 89.256514 
L 89.863054 88.002125 
L 90.058695 88.002125 
L 90.254336 86.685258 
L 90.449977 86.685258 
L 90.645618 86.685258 
L 90.841259 84.055647 
L 91.0369 84.055647 
L 91.232541 83.355005 
L 91.428182 83.26198 
L 91.623823 83.26198 
L 91.819464 83.26198 
L 92.015106 83.26198 
L 92.210747 83.150542 
L 92.406388 82.719076 
L 92.602029 81.527675 
L 92.79767 81.527675 
L 92.993311 81.506205 
L 93.188952 81.10076 
L 93.384593 81.10076 
L 93.580234 77.979191 
L 93.775875 77.712448 
L 93.971517 77.712448 
L 94.167158 77.712448 
L 94.362799 76.63454 
L 94.55844 76.371461 
L 94.754081 76.371461 
L 94.949722 74.606837 
L 95.145363 73.003244 
L 95.341004 73.003244 
L 95.536645 73.003244 
L 95.732286 71.924703 
L 95.927927 71.924703 
L 96.123569 69.647075 
L 96.31921 69.640024 
L 96.514851 69.640024 
L 96.710492 69.640024 
L 96.906133 69.640024 
L 97.101774 69.640024 
L 97.297415 68.760819 
L 97.493056 68.652926 
L 97.688697 68.652926 
L 97.884338 68.652926 
L 98.07998 68.652926 
L 98.275621 68.467845 
L 98.471262 68.467845 
L 98.666903 68.070846 
L 98.862544 67.508321 
L 99.058185 67.163907 
L 99.253826 66.431955 
L 99.449467 66.431955 
L 99.645108 66.158018 
L 99.840749 66.158018 
L 100.03639 66.157453 
L 100.232032 65.268589 
L 100.427673 65.268589 
L 100.623314 65.268589 
L 100.818955 65.09985 
L 101.014596 65.09985 
L 101.210237 65.09985 
L 101.405878 64.875607 
L 101.601519 64.875607 
L 101.79716 64.727488 
L 101.992801 64.727488 
L 102.188443 64.727488 
L 102.384084 64.727488 
L 102.579725 64.631799 
L 102.775366 64.631799 
L 102.971007 64.397819 
L 103.166648 64.396064 
L 103.362289 64.396064 
L 103.55793 64.396064 
L 103.753571 64.396064 
L 103.949212 64.396064 
L 104.144853 64.396064 
L 104.340495 64.396064 
L 104.536136 64.396064 
L 104.731777 64.396064 
L 104.927418 64.268978 
L 105.123059 63.969081 
L 105.3187 63.969081 
L 105.514341 63.969081 
L 105.709982 63.723534 
L 105.905623 63.717434 
L 106.101264 63.717434 
L 106.296906 63.717434 
L 106.492547 63.3265 
L 106.688188 63.3265 
L 106.883829 63.3265 
L 107.07947 63.3265 
L 107.275111 63.082889 
L 107.470752 63.082889 
L 107.666393 63.082889 
L 107.862034 63.082889 
L 108.057675 63.082889 
L 108.253316 63.082889 
L 108.448958 63.082889 
L 108.644599 63.018458 
L 108.84024 62.585539 
L 109.035881 62.585539 
L 109.231522 62.585539 
L 109.427163 62.585539 
L 109.622804 62.585539 
L 109.818445 62.585539 
L 110.014086 62.585539 
L 110.209727 62.365532 
L 110.405369 62.365532 
L 110.60101 62.365532 
L 110.796651 62.365532 
L 110.992292 62.365532 
L 111.187933 62.223278 
L 111.383574 62.223278 
L 111.579215 62.219768 
L 111.774856 62.219768 
L 111.970497 62.219768 
L 112.166138 62.152026 
L 112.36178 62.152026 
L 112.557421 62.152026 
L 112.753062 62.152026 
L 112.948703 62.152026 
L 113.144344 62.152026 
L 113.339985 62.152026 
L 113.535626 61.990012 
L 113.731267 61.990012 
L 113.926908 61.990012 
L 114.122549 61.990012 
L 114.31819 61.990012 
L 114.513832 61.990012 
L 114.709473 61.990012 
L 114.905114 61.990012 
L 115.100755 61.990012 
L 115.296396 61.990012 
L 115.492037 61.990012 
L 115.687678 61.990012 
L 115.883319 61.990012 
L 116.07896 61.990012 
L 116.274601 61.990012 
L 116.470243 61.990012 
L 116.665884 61.990012 
L 116.861525 61.990012 
L 117.057166 61.990012 
L 117.252807 61.990012 
L 117.448448 61.990012 
L 117.644089 61.990012 
L 117.83973 61.990012 
L 118.035371 61.990012 
L 118.231012 61.990012 
L 118.426653 61.990012 
L 118.622295 61.990012 
L 118.817936 61.990012 
L 119.013577 61.990012 
L 119.209218 61.990012 
L 119.404859 61.749407 
L 119.6005 61.749407 
L 119.796141 61.749407 
L 119.991782 61.550754 
L 120.187423 61.550754 
L 120.383064 61.550754 
L 120.578706 61.550754 
L 120.774347 61.550754 
L 120.969988 61.550754 
L 121.165629 61.550754 
L 121.36127 61.550754 
L 121.556911 61.550754 
L 121.752552 61.545818 
L 121.948193 61.545818 
L 122.143834 61.545818 
L 122.339475 61.545818 
L 122.535116 61.545818 
L 122.730758 61.331043 
L 122.926399 61.331043 
L 123.12204 61.331043 
L 123.317681 61.331043 
L 123.513322 61.331043 
L 123.708963 61.331043 
L 123.904604 61.331043 
L 124.100245 61.331043 
L 124.295886 61.331043 
L 124.491527 61.331043 
L 124.687169 61.331043 
L 124.88281 61.331043 
L 125.078451 61.331043 
L 125.274092 61.331043 
L 125.469733 61.331043 
L 125.665374 61.331043 
L 125.861015 61.331043 
L 126.056656 61.331043 
L 126.252297 61.331043 
L 126.447938 61.331043 
L 126.643579 61.30519 
L 126.839221 61.30519 
L 127.034862 61.120937 
L 127.230503 61.120937 
L 127.426144 61.120937 
L 127.621785 60.980169 
L 127.817426 60.980169 
L 128.013067 60.980169 
L 128.208708 60.720696 
L 128.404349 60.617601 
L 128.59999 60.617601 
L 128.795632 60.617601 
L 128.991273 60.615126 
L 129.186914 60.615126 
L 129.382555 60.615126 
L 129.578196 60.615126 
L 129.773837 60.144931 
L 129.969478 60.144931 
L 130.165119 60.144931 
L 130.36076 60.144931 
L 130.556401 60.144931 
L 130.752042 60.144931 
L 130.947684 60.144931 
L 131.143325 60.144931 
L 131.338966 59.774147 
L 131.534607 59.774147 
L 131.730248 59.569952 
L 131.925889 59.569952 
L 132.12153 59.569952 
L 132.317171 59.569952 
L 132.512812 59.569952 
L 132.708453 59.569403 
L 132.904095 59.569403 
L 133.099736 59.569403 
L 133.295377 59.541953 
L 133.491018 59.541953 
L 133.686659 59.541953 
L 133.8823 59.541953 
L 134.077941 59.541953 
L 134.273582 59.541953 
L 134.469223 59.192944 
L 134.664864 59.192944 
L 134.860506 59.192944 
L 135.056147 59.192944 
L 135.251788 58.698082 
L 135.447429 58.698082 
L 135.64307 58.698082 
L 135.838711 58.48965 
L 136.034352 58.48965 
L 136.229993 58.48965 
L 136.425634 58.48965 
L 136.621275 58.48965 
L 136.816916 58.48965 
L 137.012558 58.48965 
L 137.208199 58.48965 
L 137.40384 58.48965 
L 137.599481 58.29268 
L 137.795122 58.29268 
L 137.990763 58.128969 
L 138.186404 58.097373 
L 138.382045 57.914303 
L 138.577686 57.914303 
L 138.773327 57.914303 
L 138.968969 57.914303 
L 139.16461 57.728471 
L 139.360251 57.726769 
L 139.555892 57.552538 
L 139.751533 57.552538 
L 139.947174 57.552538 
L 140.142815 57.552538 
L 140.338456 57.552538 
L 140.534097 57.552538 
L 140.729738 57.54807 
L 140.925379 57.54807 
L 141.121021 57.54807 
L 141.316662 57.54807 
L 141.512303 57.48375 
L 141.707944 57.48375 
L 141.903585 57.373387 
L 142.099226 57.373387 
L 142.294867 57.373387 
L 142.490508 57.373387 
L 142.686149 57.043985 
L 142.88179 57.043985 
L 143.077432 57.035538 
L 143.273073 56.876208 
L 143.468714 56.872123 
L 143.664355 56.872123 
L 143.859996 56.716218 
L 144.055637 56.716218 
L 144.251278 56.559634 
L 144.446919 56.484551 
L 144.64256 56.484551 
L 144.838201 56.484551 
L 145.033842 56.484551 
L 145.229484 56.258159 
L 145.425125 56.132926 
L 145.620766 56.12986 
L 145.816407 56.12986 
L 146.012048 56.106191 
L 146.207689 56.106191 
L 146.40333 56.106191 
L 146.598971 56.105584 
L 146.794612 56.105584 
L 146.990253 55.96526 
L 147.185895 55.827772 
L 147.381536 55.827772 
L 147.577177 55.827772 
L 147.772818 55.827772 
L 147.968459 55.641013 
L 148.1641 55.334847 
L 148.359741 55.181114 
L 148.555382 55.181114 
L 148.751023 55.181114 
L 148.946664 55.03463 
L 149.142305 55.03463 
L 149.337947 54.891366 
L 149.533588 54.891366 
L 149.729229 54.887786 
L 149.92487 54.751217 
L 150.120511 54.747715 
L 150.316152 54.614083 
L 150.511793 54.614083 
L 150.707434 54.614083 
L 150.903075 54.614083 
L 151.098716 54.614083 
L 151.294358 54.614083 
L 151.489999 54.614083 
L 151.68564 54.614083 
L 151.881281 54.610657 
L 152.076922 54.479868 
L 152.272563 54.219828 
L 152.468204 54.216614 
L 152.663845 54.216614 
L 152.859486 54.216614 
L 153.055127 54.216614 
L 153.250768 54.216614 
L 153.44641 54.216614 
L 153.642051 54.216614 
L 153.837692 53.922979 
L 154.033333 53.848257 
L 154.228974 53.848257 
L 154.424615 53.848257 
L 154.620256 53.848257 
L 154.815897 53.848257 
L 155.011538 53.848257 
L 155.207179 53.848257 
L 155.402821 53.848257 
L 155.598462 53.848257 
L 155.794103 53.848257 
L 155.989744 53.848257 
L 156.185385 53.848257 
L 156.381026 53.848257 
L 156.576667 53.848257 
L 156.772308 53.848257 
L 156.967949 53.776879 
L 157.16359 53.775095 
L 157.359232 53.775095 
L 157.554873 53.729177 
L 157.750514 53.729177 
L 157.946155 53.729177 
L 158.141796 53.729177 
L 158.337437 53.729177 
L 158.533078 53.729177 
L 158.728719 53.729177 
L 158.92436 53.729177 
L 159.120001 53.729177 
L 159.315642 53.729177 
L 159.511284 53.729177 
L 159.706925 53.729177 
L 159.902566 53.729177 
L 160.098207 53.729177 
L 160.293848 53.729177 
L 160.489489 53.637257 
L 160.68513 53.637257 
L 160.880771 53.637257 
L 161.076412 53.637257 
L 161.272053 53.501486 
L 161.467695 53.501486 
L 161.663336 53.501486 
L 161.858977 53.367723 
L 162.054618 53.23377 
L 162.250259 53.23377 
L 162.4459 53.23377 
L 162.641541 53.23377 
L 162.837182 53.109319 
L 163.032823 53.106128 
L 163.228464 53.106128 
L 163.424105 53.106128 
L 163.619747 53.106128 
L 163.815388 53.106128 
L 164.011029 52.981354 
L 164.20667 52.981354 
L 164.402311 52.981354 
L 164.597952 52.862404 
L 164.793593 52.862404 
L 164.989234 52.862404 
L 165.184875 52.862404 
L 165.380516 52.862404 
L 165.576158 52.862404 
L 165.771799 52.862404 
L 165.96744 52.862404 
L 166.163081 52.862404 
L 166.358722 52.862404 
L 166.554363 52.862404 
L 166.750004 52.862404 
L 166.945645 52.862404 
L 167.141286 52.862404 
L 167.336927 52.862404 
L 167.532568 52.862404 
L 167.72821 52.862404 
L 167.923851 52.862404 
L 168.119492 52.862404 
L 168.315133 52.862404 
L 168.510774 52.859354 
L 168.706415 52.859354 
L 168.902056 52.859354 
L 169.097697 52.859354 
L 169.293338 52.859354 
L 169.488979 52.859354 
L 169.684621 52.859354 
L 169.880262 52.859354 
L 170.075903 52.859354 
L 170.271544 52.743017 
L 170.467185 52.743017 
L 170.662826 52.743017 
L 170.858467 52.626226 
L 171.054108 52.626226 
L 171.249749 52.402958 
L 171.44539 52.402958 
L 171.641031 52.402958 
L 171.836673 52.402958 
L 172.032314 52.402958 
L 172.227955 52.397308 
L 172.423596 52.397308 
L 172.619237 52.290611 
L 172.814878 52.290611 
L 173.010519 52.290611 
L 173.20616 52.183402 
L 173.401801 52.183402 
L 173.597442 52.183402 
L 173.793084 52.183402 
L 173.988725 52.183402 
L 174.184366 52.183402 
L 174.380007 52.078404 
L 174.575648 52.078404 
L 174.771289 52.078404 
L 174.96693 52.075781 
L 175.162571 52.075781 
L 175.358212 52.075781 
L 175.553853 52.075781 
L 175.749494 52.075781 
L 175.945136 52.075781 
L 176.140777 51.899138 
L 176.336418 51.899138 
L 176.532059 51.899138 
L 176.7277 51.899138 
L 176.923341 51.899138 
L 177.118982 51.899138 
L 177.314623 51.899138 
L 177.510264 51.899138 
L 177.705905 51.87288 
L 177.901547 51.87288 
L 178.097188 51.87288 
L 178.292829 51.776013 
L 178.48847 51.776013 
L 178.684111 51.679209 
L 178.879752 51.679209 
L 179.075393 51.653497 
L 179.271034 51.653497 
L 179.466675 51.653497 
L 179.662316 51.653497 
L 179.857958 51.653497 
L 180.053599 51.653497 
L 180.24924 51.653497 
L 180.444881 51.6529 
L 180.640522 51.583706 
L 180.836163 51.583706 
L 181.031804 51.583706 
L 181.227445 51.583706 
L 181.423086 51.583706 
L 181.618727 51.583706 
L 181.814368 51.583706 
L 182.01001 51.583706 
L 182.205651 51.583706 
L 182.401292 51.583706 
L 182.596933 51.583706 
L 182.792574 51.583706 
L 182.988215 51.583706 
L 183.183856 51.581932 
L 183.379497 51.581932 
L 183.575138 51.424371 
L 183.770779 51.420331 
L 183.966421 51.420331 
L 184.162062 51.420331 
L 184.357703 51.311002 
L 184.553344 51.311002 
L 184.748985 51.311002 
L 184.944626 51.311002 
L 185.140267 51.311002 
L 185.335908 51.09717 
L 185.531549 51.09717 
L 185.72719 50.989883 
L 185.922831 50.88771 
L 186.118473 50.787834 
L 186.314114 50.787834 
L 186.509755 50.787834 
L 186.705396 50.787834 
L 186.901037 50.787834 
L 187.096678 50.787834 
L 187.292319 50.787834 
L 187.48796 50.787834 
L 187.683601 50.787834 
L 187.879242 50.690177 
L 188.074884 50.690177 
L 188.270525 50.690177 
L 188.466166 50.690177 
L 188.661807 50.690177 
L 188.857448 50.690177 
L 189.053089 50.690177 
L 189.24873 50.690177 
L 189.444371 50.690177 
L 189.640012 50.687737 
L 189.835653 50.687737 
L 190.031294 50.687737 
L 190.226936 50.687737 
L 190.422577 50.687737 
L 190.618218 50.687737 
L 190.813859 50.503622 
L 191.0095 50.503622 
L 191.205141 50.409813 
L 191.400782 50.409813 
L 191.596423 50.409813 
L 191.792064 50.407529 
L 191.987705 50.407529 
L 192.183347 50.407529 
L 192.378988 50.407529 
L 192.574629 50.407529 
L 192.77027 50.320336 
L 192.965911 50.320336 
L 193.161552 50.320336 
L 193.357193 50.320336 
L 193.552834 50.320336 
L 193.748475 50.318101 
L 193.944116 50.318101 
L 194.139757 50.318101 
L 194.335399 50.318101 
L 194.53104 50.318101 
L 194.726681 50.318101 
L 194.922322 50.318101 
L 195.117963 50.232744 
L 195.313604 50.232744 
L 195.509245 50.232744 
L 195.704886 50.232744 
L 195.900527 50.232744 
L 196.096168 50.232744 
L 196.29181 50.232744 
L 196.487451 50.232744 
L 196.683092 50.232744 
L 196.878733 50.232744 
L 197.074374 50.232744 
L 197.270015 50.232744 
L 197.465656 50.232744 
L 197.661297 50.232744 
L 197.856938 50.232744 
L 198.052579 50.232744 
L 198.24822 50.232744 
L 198.443862 50.232744 
L 198.639503 50.232744 
L 198.835144 50.232744 
L 199.030785 50.146976 
L 199.226426 50.144833 
L 199.422067 50.144833 
L 199.617708 50.144833 
L 199.813349 50.144833 
L 200.00899 50.144833 
L 200.204631 50.144833 
L 200.400273 50.144833 
L 200.595914 49.904228 
L 200.791555 49.904228 
L 200.987196 49.904228 
L 201.182837 49.904228 
L 201.378478 49.904228 
L 201.574119 49.904228 
L 201.76976 49.745596 
L 201.965401 49.745596 
L 202.161042 49.745596 
L 202.356684 49.745596 
L 202.552325 49.745596 
L 202.747966 49.745596 
L 202.943607 49.745596 
L 203.139248 49.745596 
L 203.334889 49.745596 
L 203.53053 49.745596 
L 203.726171 49.745596 
L 203.921812 49.745596 
L 204.117453 49.745596 
L 204.313094 49.745596 
L 204.508736 49.745596 
L 204.704377 49.745596 
L 204.900018 49.745596 
L 205.095659 49.745596 
L 205.2913 49.745596 
L 205.486941 49.745596 
L 205.682582 49.745596 
L 205.878223 49.745596 
L 206.073864 49.745596 
L 206.269505 49.745596 
L 206.465147 49.523988 
L 206.660788 49.523988 
L 206.856429 49.518406 
L 207.05207 49.448604 
L 207.247711 49.448604 
L 207.443352 49.448604 
L 207.638993 49.448604 
L 207.834634 49.448604 
L 208.030275 49.448604 
L 208.225916 49.448604 
L 208.421557 49.448604 
L 208.617199 49.448604 
L 208.81284 49.159094 
L 209.008481 49.159094 
L 209.204122 49.159094 
L 209.399763 49.159094 
L 209.595404 49.159094 
L 209.791045 49.159094 
L 209.986686 49.159094 
L 210.182327 49.159094 
L 210.377968 49.159094 
L 210.57361 49.159094 
L 210.769251 49.159094 
L 210.964892 49.159094 
L 211.160533 49.159094 
L 211.356174 49.159094 
L 211.551815 49.159094 
L 211.747456 49.159094 
L 211.943097 49.159094 
L 212.138738 49.159094 
L 212.334379 49.159094 
L 212.53002 49.159094 
L 212.725662 49.159094 
L 212.921303 49.159094 
L 213.116944 49.159094 
L 213.312585 49.159094 
L 213.508226 49.06772 
L 213.703867 49.06772 
L 213.899508 49.06772 
L 214.095149 49.06772 
L 214.29079 49.06772 
L 214.486431 49.06772 
L 214.682073 49.06772 
L 214.877714 49.06772 
L 215.073355 49.06772 
L 215.268996 49.06772 
L 215.464637 49.06772 
L 215.660278 49.06772 
L 215.855919 49.06772 
L 216.05156 49.06772 
L 216.247201 49.065566 
L 216.442842 49.065566 
L 216.638483 49.065566 
L 216.834125 49.065566 
L 217.029766 49.065566 
L 217.225407 49.065566 
L 217.421048 49.065566 
L 217.616689 49.065566 
L 217.81233 49.065566 
L 218.007971 49.065566 
L 218.203612 49.065566 
L 218.399253 48.903503 
L 218.594894 48.903503 
L 218.790536 48.899348 
L 218.986177 48.899348 
L 219.181818 48.899348 
L 219.377459 48.821143 
L 219.5731 48.74273 
L 219.768741 48.74273 
L 219.964382 48.74273 
L 220.160023 48.74273 
L 220.355664 48.74273 
L 220.551305 48.666101 
L 220.746946 48.666101 
L 220.942588 48.666101 
L 221.138229 48.666101 
L 221.33387 48.666101 
L 221.529511 48.666101 
L 221.725152 48.664186 
L 221.920793 48.664186 
L 222.116434 48.664186 
L 222.312075 48.591193 
L 222.507716 48.517951 
L 222.703357 48.517951 
L 222.898999 48.516121 
L 223.09464 48.516121 
L 223.290281 48.446319 
L 223.485922 48.376245 
L 223.681563 48.376245 
L 223.877204 48.376245 
L 224.072845 48.376245 
L 224.268486 48.374494 
L 224.464127 48.374494 
L 224.659768 48.374494 
L 224.85541 48.374494 
L 225.051051 48.374494 
L 225.246692 48.374494 
L 225.442333 48.374494 
L 225.637974 48.374494 
L 225.833615 48.374494 
L 226.029256 48.374494 
L 226.224897 48.374494 
L 226.420538 48.374494 
L 226.616179 48.307678 
L 226.81182 48.24057 
L 227.007462 48.24057 
L 227.203103 48.24057 
L 227.398744 48.24057 
L 227.594385 48.238894 
L 227.790026 48.238894 
L 227.985667 48.238894 
L 228.181308 48.238894 
L 228.376949 48.045978 
L 228.57259 48.045978 
L 228.768231 47.985839 
L 228.963873 47.985839 
L 229.159514 47.925373 
L 229.355155 47.589535 
L 229.550796 47.483661 
L 229.746437 47.193628 
L 229.942078 46.95528 
L 230.137719 46.662099 
L 230.33336 46.662099 
L 230.529001 46.654736 
L 230.724642 46.549221 
L 230.920283 46.445797 
L 231.115925 46.445797 
L 231.311566 46.346973 
L 231.507207 46.346973 
L 231.702848 46.251254 
L 231.898489 46.251254 
L 232.09413 46.205543 
L 232.289771 46.160805 
L 232.485412 46.117008 
L 232.681053 46.074125 
L 232.876694 46.032125 
L 233.072336 46.032125 
L 233.267977 46.032125 
L 233.463618 46.032125 
L 233.659259 46.031076 
L 233.8549 45.990983 
L 234.050541 45.911169 
L 234.246182 45.835453 
L 234.441823 44.38549 
L 234.637464 44.38549 
L 234.833105 44.276666 
L 235.028746 44.247772 
L 235.224388 44.247772 
L 235.420029 44.084024 
L 235.61567 44.038246 
L 235.811311 44.038246 
L 236.006952 43.996653 
L 236.202593 43.995614 
L 236.398234 43.975469 
L 236.593875 42.047807 
L 236.789516 42.001273 
L 236.985157 42.001273 
L 237.180799 42.001273 
L 237.37644 42.001273 
L 237.572081 42.001273 
L 237.767722 42.001273 
L 237.963363 42.001273 
L 238.159004 42.001273 
L 238.354645 42.001273 
L 238.550286 42.001273 
L 238.745927 42.001273 
L 238.941568 42.001273 
L 239.137209 42.001273 
L 239.332851 42.001273 
L 239.528492 42.001273 
L 239.724133 42.001273 
L 239.919774 42.001273 
L 240.115415 42.001273 
L 240.311056 42.001273 
L 240.506697 42.001273 
L 240.702338 42.001273 
L 240.897979 42.001273 
L 241.09362 42.001273 
L 241.289262 42.001273 
L 241.484903 42.001273 
L 241.680544 42.001273 
L 241.876185 42.001273 
L 242.071826 42.001273 
L 242.267467 42.001273 
L 242.463108 42.001273 
L 242.658749 42.001273 
L 242.85439 42.001273 
L 243.050031 42.001273 
L 243.245672 42.001273 
L 243.441314 42.001273 
L 243.636955 42.001273 
L 243.832596 42.001273 
L 244.028237 42.001273 
L 244.223878 42.001273 
L 244.419519 42.001273 
L 244.61516 42.001273 
L 244.810801 42.001273 
L 245.006442 42.001273 
L 245.202083 42.001273 
L 245.397725 42.001273 
L 245.593366 42.001273 
L 245.789007 42.001273 
L 245.984648 42.001273 
L 246.180289 42.001273 
L 246.37593 42.001273 
L 246.571571 42.001273 
L 246.767212 42.001273 
L 246.962853 42.001273 
L 247.158494 42.001273 
L 247.354135 42.001273 
L 247.549777 42.001273 
L 247.745418 42.001273 
L 247.941059 42.001273 
L 248.1367 42.001273 
L 248.332341 42.001273 
L 248.527982 42.001273 
L 248.723623 42.001273 
L 248.919264 42.001273 
L 249.114905 42.001273 
L 249.310546 42.001273 
L 249.506188 42.001273 
L 249.701829 42.001273 
L 249.89747 42.001273 
L 250.093111 42.001273 
L 250.288752 42.001273 
L 250.484393 42.001273 
L 250.680034 42.001273 
L 250.875675 42.001273 
L 251.071316 42.001273 
L 251.266957 42.001273 
L 251.462599 42.001273 
L 251.65824 42.001273 
L 251.853881 42.001273 
L 252.049522 42.001273 
L 252.245163 42.001273 
L 252.440804 42.001273 
L 252.636445 42.001273 
L 252.832086 42.001273 
L 253.027727 42.001273 
L 253.027727 42.001273 
L 253.027727 42.001273 
L 252.832086 42.001273 
L 252.636445 42.001273 
L 252.440804 42.001273 
L 252.245163 42.001273 
L 252.049522 42.001273 
L 251.853881 42.001273 
L 251.65824 42.001273 
L 251.462599 42.001273 
L 251.266957 42.001273 
L 251.071316 42.001273 
L 250.875675 42.001273 
L 250.680034 42.001273 
L 250.484393 42.001273 
L 250.288752 42.001273 
L 250.093111 42.001273 
L 249.89747 42.001273 
L 249.701829 42.001273 
L 249.506188 42.001273 
L 249.310546 42.001273 
L 249.114905 42.001273 
L 248.919264 42.001273 
L 248.723623 42.001273 
L 248.527982 42.001273 
L 248.332341 42.001273 
L 248.1367 42.001273 
L 247.941059 42.001273 
L 247.745418 42.001273 
L 247.549777 42.001273 
L 247.354135 42.001273 
L 247.158494 42.001273 
L 246.962853 42.001273 
L 246.767212 42.001273 
L 246.571571 42.001273 
L 246.37593 42.001273 
L 246.180289 42.001273 
L 245.984648 42.001273 
L 245.789007 42.001273 
L 245.593366 42.001273 
L 245.397725 42.001273 
L 245.202083 42.001273 
L 245.006442 42.001273 
L 244.810801 42.001273 
L 244.61516 42.001273 
L 244.419519 42.001273 
L 244.223878 42.001273 
L 244.028237 42.001273 
L 243.832596 42.001273 
L 243.636955 42.001273 
L 243.441314 42.001273 
L 243.245672 42.001273 
L 243.050031 42.001273 
L 242.85439 42.001273 
L 242.658749 42.001273 
L 242.463108 42.001273 
L 242.267467 42.001273 
L 242.071826 42.001273 
L 241.876185 42.001273 
L 241.680544 42.001273 
L 241.484903 42.001273 
L 241.289262 42.001273 
L 241.09362 42.001273 
L 240.897979 42.001273 
L 240.702338 42.001273 
L 240.506697 42.001273 
L 240.311056 42.001273 
L 240.115415 42.001273 
L 239.919774 42.001273 
L 239.724133 42.001273 
L 239.528492 42.001273 
L 239.332851 42.001273 
L 239.137209 42.001273 
L 238.941568 42.001273 
L 238.745927 42.001273 
L 238.550286 42.001273 
L 238.354645 42.001273 
L 238.159004 42.001273 
L 237.963363 42.001273 
L 237.767722 42.001273 
L 237.572081 42.001273 
L 237.37644 42.001273 
L 237.180799 42.001273 
L 236.985157 42.001273 
L 236.789516 42.001273 
L 236.593875 42.001273 
L 236.398234 42.001273 
L 236.202593 42.001273 
L 236.006952 42.001273 
L 235.811311 42.001273 
L 235.61567 42.001273 
L 235.420029 42.001273 
L 235.224388 42.001273 
L 235.028746 42.001273 
L 234.833105 42.001273 
L 234.637464 42.001273 
L 234.441823 42.001273 
L 234.246182 42.001273 
L 234.050541 42.001273 
L 233.8549 42.001273 
L 233.659259 42.001273 
L 233.463618 42.001273 
L 233.267977 42.001273 
L 233.072336 42.001273 
L 232.876694 42.001273 
L 232.681053 42.001273 
L 232.485412 42.001273 
L 232.289771 42.001273 
L 232.09413 42.001273 
L 231.898489 42.001273 
L 231.702848 42.001273 
L 231.507207 42.001273 
L 231.311566 42.001273 
L 231.115925 42.001273 
L 230.920283 42.001273 
L 230.724642 42.001273 
L 230.529001 42.001273 
L 230.33336 42.001273 
L 230.137719 42.001273 
L 229.942078 42.001273 
L 229.746437 42.001273 
L 229.550796 42.001273 
L 229.355155 42.001273 
L 229.159514 42.001273 
L 228.963873 42.001273 
L 228.768231 42.001273 
L 228.57259 42.001273 
L 228.376949 42.001273 
L 228.181308 42.001273 
L 227.985667 42.001273 
L 227.790026 42.001273 
L 227.594385 42.001273 
L 227.398744 42.001273 
L 227.203103 42.001273 
L 227.007462 42.001273 
L 226.81182 42.001273 
L 226.616179 42.001273 
L 226.420538 42.001273 
L 226.224897 42.001273 
L 226.029256 42.001273 
L 225.833615 42.001273 
L 225.637974 42.001273 
L 225.442333 42.001273 
L 225.246692 42.001273 
L 225.051051 42.001273 
L 224.85541 42.001273 
L 224.659768 42.001273 
L 224.464127 42.001273 
L 224.268486 42.001273 
L 224.072845 42.001273 
L 223.877204 42.001273 
L 223.681563 42.001273 
L 223.485922 42.001273 
L 223.290281 42.001273 
L 223.09464 42.001273 
L 222.898999 42.001273 
L 222.703357 42.001273 
L 222.507716 42.001273 
L 222.312075 42.001273 
L 222.116434 42.001273 
L 221.920793 42.001273 
L 221.725152 42.001273 
L 221.529511 42.001273 
L 221.33387 42.001273 
L 221.138229 42.001273 
L 220.942588 42.001273 
L 220.746946 42.001273 
L 220.551305 42.001273 
L 220.355664 42.001273 
L 220.160023 42.001273 
L 219.964382 42.001273 
L 219.768741 42.001273 
L 219.5731 42.001273 
L 219.377459 42.001273 
L 219.181818 42.001273 
L 218.986177 42.001273 
L 218.790536 42.001273 
L 218.594894 42.001273 
L 218.399253 42.001273 
L 218.203612 42.001273 
L 218.007971 42.001273 
L 217.81233 42.001273 
L 217.616689 42.001273 
L 217.421048 42.001273 
L 217.225407 42.001273 
L 217.029766 42.001273 
L 216.834125 42.001273 
L 216.638483 42.001273 
L 216.442842 42.001273 
L 216.247201 42.001273 
L 216.05156 42.001273 
L 215.855919 42.001273 
L 215.660278 42.001273 
L 215.464637 42.001273 
L 215.268996 42.001273 
L 215.073355 42.001273 
L 214.877714 42.001273 
L 214.682073 42.001273 
L 214.486431 42.001273 
L 214.29079 42.001273 
L 214.095149 42.001273 
L 213.899508 42.001273 
L 213.703867 42.001273 
L 213.508226 42.001273 
L 213.312585 42.001273 
L 213.116944 42.001273 
L 212.921303 42.001273 
L 212.725662 42.001273 
L 212.53002 42.001273 
L 212.334379 42.001273 
L 212.138738 42.001273 
L 211.943097 42.001273 
L 211.747456 42.001273 
L 211.551815 42.001273 
L 211.356174 42.001273 
L 211.160533 42.001273 
L 210.964892 42.001273 
L 210.769251 42.001273 
L 210.57361 42.001273 
L 210.377968 42.001273 
L 210.182327 42.001273 
L 209.986686 42.001273 
L 209.791045 42.001273 
L 209.595404 42.001273 
L 209.399763 42.001273 
L 209.204122 42.001273 
L 209.008481 42.001273 
L 208.81284 42.001273 
L 208.617199 42.001273 
L 208.421557 42.001273 
L 208.225916 42.001273 
L 208.030275 42.001273 
L 207.834634 42.001273 
L 207.638993 42.001273 
L 207.443352 42.001273 
L 207.247711 42.001273 
L 207.05207 42.001273 
L 206.856429 42.001273 
L 206.660788 42.001273 
L 206.465147 42.001273 
L 206.269505 42.001273 
L 206.073864 42.001273 
L 205.878223 42.001273 
L 205.682582 42.001273 
L 205.486941 42.001273 
L 205.2913 42.001273 
L 205.095659 42.001273 
L 204.900018 42.001273 
L 204.704377 42.001273 
L 204.508736 42.001273 
L 204.313094 42.001273 
L 204.117453 42.001273 
L 203.921812 42.001273 
L 203.726171 42.001273 
L 203.53053 42.001273 
L 203.334889 42.001273 
L 203.139248 42.001273 
L 202.943607 42.001273 
L 202.747966 42.001273 
L 202.552325 42.001273 
L 202.356684 42.001273 
L 202.161042 42.001273 
L 201.965401 42.001273 
L 201.76976 42.001273 
L 201.574119 42.001273 
L 201.378478 42.001273 
L 201.182837 42.001273 
L 200.987196 42.001273 
L 200.791555 42.001273 
L 200.595914 42.001273 
L 200.400273 42.001273 
L 200.204631 42.001273 
L 200.00899 42.001273 
L 199.813349 42.001273 
L 199.617708 42.001273 
L 199.422067 42.001273 
L 199.226426 42.001273 
L 199.030785 42.001273 
L 198.835144 42.001273 
L 198.639503 42.001273 
L 198.443862 42.001273 
L 198.24822 42.001273 
L 198.052579 42.001273 
L 197.856938 42.001273 
L 197.661297 42.001273 
L 197.465656 42.001273 
L 197.270015 42.001273 
L 197.074374 42.001273 
L 196.878733 42.001273 
L 196.683092 42.001273 
L 196.487451 42.001273 
L 196.29181 42.001273 
L 196.096168 42.001273 
L 195.900527 42.001273 
L 195.704886 42.001273 
L 195.509245 42.001273 
L 195.313604 42.001273 
L 195.117963 42.001273 
L 194.922322 42.001273 
L 194.726681 42.001273 
L 194.53104 42.001273 
L 194.335399 42.001273 
L 194.139757 42.001273 
L 193.944116 42.001273 
L 193.748475 42.001273 
L 193.552834 42.001273 
L 193.357193 42.001273 
L 193.161552 42.001273 
L 192.965911 42.001273 
L 192.77027 42.001273 
L 192.574629 42.001273 
L 192.378988 42.001273 
L 192.183347 42.001273 
L 191.987705 42.001273 
L 191.792064 42.001273 
L 191.596423 42.001273 
L 191.400782 42.001273 
L 191.205141 42.001273 
L 191.0095 42.001273 
L 190.813859 42.001273 
L 190.618218 42.001273 
L 190.422577 42.001273 
L 190.226936 42.001273 
L 190.031294 42.001273 
L 189.835653 42.001273 
L 189.640012 42.001273 
L 189.444371 42.001273 
L 189.24873 42.001273 
L 189.053089 42.001273 
L 188.857448 42.001273 
L 188.661807 42.001273 
L 188.466166 42.001273 
L 188.270525 42.001273 
L 188.074884 42.001273 
L 187.879242 42.001273 
L 187.683601 42.001273 
L 187.48796 42.001273 
L 187.292319 42.001273 
L 187.096678 42.001273 
L 186.901037 42.001273 
L 186.705396 42.001273 
L 186.509755 42.001273 
L 186.314114 42.001273 
L 186.118473 42.001273 
L 185.922831 42.001273 
L 185.72719 42.001273 
L 185.531549 42.001273 
L 185.335908 42.001273 
L 185.140267 42.001273 
L 184.944626 42.001273 
L 184.748985 42.001273 
L 184.553344 42.001273 
L 184.357703 42.001273 
L 184.162062 42.001273 
L 183.966421 42.001273 
L 183.770779 42.001273 
L 183.575138 42.001273 
L 183.379497 42.001273 
L 183.183856 42.001273 
L 182.988215 42.001273 
L 182.792574 42.001273 
L 182.596933 42.001273 
L 182.401292 42.001273 
L 182.205651 42.001273 
L 182.01001 42.001273 
L 181.814368 42.001273 
L 181.618727 42.001273 
L 181.423086 42.001273 
L 181.227445 42.001273 
L 181.031804 42.001273 
L 180.836163 42.001273 
L 180.640522 42.001273 
L 180.444881 42.001273 
L 180.24924 42.001273 
L 180.053599 42.001273 
L 179.857958 42.001273 
L 179.662316 42.001273 
L 179.466675 42.001273 
L 179.271034 42.001273 
L 179.075393 42.001273 
L 178.879752 42.001273 
L 178.684111 42.001273 
L 178.48847 42.001273 
L 178.292829 42.001273 
L 178.097188 42.001273 
L 177.901547 42.001273 
L 177.705905 42.001273 
L 177.510264 42.001273 
L 177.314623 42.001273 
L 177.118982 42.001273 
L 176.923341 42.001273 
L 176.7277 42.001273 
L 176.532059 42.001273 
L 176.336418 42.001273 
L 176.140777 42.001273 
L 175.945136 42.001273 
L 175.749494 42.001273 
L 175.553853 42.001273 
L 175.358212 42.001273 
L 175.162571 42.001273 
L 174.96693 42.001273 
L 174.771289 42.001273 
L 174.575648 42.001273 
L 174.380007 42.001273 
L 174.184366 42.001273 
L 173.988725 42.001273 
L 173.793084 42.001273 
L 173.597442 42.001273 
L 173.401801 42.001273 
L 173.20616 42.001273 
L 173.010519 42.001273 
L 172.814878 42.001273 
L 172.619237 42.001273 
L 172.423596 42.001273 
L 172.227955 42.001273 
L 172.032314 42.001273 
L 171.836673 42.001273 
L 171.641031 42.001273 
L 171.44539 42.001273 
L 171.249749 42.001273 
L 171.054108 42.001273 
L 170.858467 42.001273 
L 170.662826 42.001273 
L 170.467185 42.001273 
L 170.271544 42.001273 
L 170.075903 42.001273 
L 169.880262 42.001273 
L 169.684621 42.001273 
L 169.488979 42.001273 
L 169.293338 42.001273 
L 169.097697 42.001273 
L 168.902056 42.001273 
L 168.706415 42.001273 
L 168.510774 42.001273 
L 168.315133 42.001273 
L 168.119492 42.001273 
L 167.923851 42.001273 
L 167.72821 42.001273 
L 167.532568 42.001273 
L 167.336927 42.001273 
L 167.141286 42.001273 
L 166.945645 42.001273 
L 166.750004 42.001273 
L 166.554363 42.001273 
L 166.358722 42.001273 
L 166.163081 42.001273 
L 165.96744 42.001273 
L 165.771799 42.001273 
L 165.576158 42.001273 
L 165.380516 42.001273 
L 165.184875 42.001273 
L 164.989234 42.001273 
L 164.793593 42.001273 
L 164.597952 42.001273 
L 164.402311 42.001273 
L 164.20667 42.001273 
L 164.011029 42.001273 
L 163.815388 42.001273 
L 163.619747 42.001273 
L 163.424105 42.001273 
L 163.228464 42.001273 
L 163.032823 42.001273 
L 162.837182 42.001273 
L 162.641541 42.001273 
L 162.4459 42.001273 
L 162.250259 42.001273 
L 162.054618 42.001273 
L 161.858977 42.001273 
L 161.663336 42.001273 
L 161.467695 42.001273 
L 161.272053 42.001273 
L 161.076412 42.001273 
L 160.880771 42.001273 
L 160.68513 42.001273 
L 160.489489 42.001273 
L 160.293848 42.001273 
L 160.098207 42.001273 
L 159.902566 42.001273 
L 159.706925 42.001273 
L 159.511284 42.001273 
L 159.315642 42.001273 
L 159.120001 42.001273 
L 158.92436 42.001273 
L 158.728719 42.001273 
L 158.533078 42.001273 
L 158.337437 42.001273 
L 158.141796 42.001273 
L 157.946155 42.001273 
L 157.750514 42.001273 
L 157.554873 42.001273 
L 157.359232 42.001273 
L 157.16359 42.001273 
L 156.967949 42.001273 
L 156.772308 42.001273 
L 156.576667 42.001273 
L 156.381026 42.001273 
L 156.185385 42.001273 
L 155.989744 42.001273 
L 155.794103 42.001273 
L 155.598462 42.001273 
L 155.402821 42.001273 
L 155.207179 42.001273 
L 155.011538 42.001273 
L 154.815897 42.001273 
L 154.620256 42.001273 
L 154.424615 42.001273 
L 154.228974 42.001273 
L 154.033333 42.001273 
L 153.837692 42.001273 
L 153.642051 42.001273 
L 153.44641 42.001273 
L 153.250768 42.001273 
L 153.055127 42.001273 
L 152.859486 42.001273 
L 152.663845 42.001273 
L 152.468204 42.001273 
L 152.272563 42.001273 
L 152.076922 42.001273 
L 151.881281 42.001273 
L 151.68564 42.001273 
L 151.489999 42.001273 
L 151.294358 42.001273 
L 151.098716 42.001273 
L 150.903075 42.001273 
L 150.707434 42.001273 
L 150.511793 42.001273 
L 150.316152 42.001273 
L 150.120511 42.001273 
L 149.92487 42.001273 
L 149.729229 42.001273 
L 149.533588 42.001273 
L 149.337947 42.001273 
L 149.142305 42.001273 
L 148.946664 42.001273 
L 148.751023 42.001273 
L 148.555382 42.001273 
L 148.359741 42.001273 
L 148.1641 42.001273 
L 147.968459 42.001273 
L 147.772818 42.001273 
L 147.577177 42.001273 
L 147.381536 42.001273 
L 147.185895 42.001273 
L 146.990253 42.001273 
L 146.794612 42.001273 
L 146.598971 42.001273 
L 146.40333 42.001273 
L 146.207689 42.001273 
L 146.012048 42.001273 
L 145.816407 42.001273 
L 145.620766 42.001273 
L 145.425125 42.001273 
L 145.229484 42.001273 
L 145.033842 42.001273 
L 144.838201 42.001273 
L 144.64256 42.001273 
L 144.446919 42.001273 
L 144.251278 42.001273 
L 144.055637 42.001273 
L 143.859996 42.001273 
L 143.664355 42.001273 
L 143.468714 42.001273 
L 143.273073 42.001273 
L 143.077432 42.001273 
L 142.88179 42.001273 
L 142.686149 42.001273 
L 142.490508 42.001273 
L 142.294867 42.001273 
L 142.099226 42.001273 
L 141.903585 42.001273 
L 141.707944 42.001273 
L 141.512303 42.001273 
L 141.316662 42.001273 
L 141.121021 42.001273 
L 140.925379 42.001273 
L 140.729738 42.001273 
L 140.534097 42.001273 
L 140.338456 42.001273 
L 140.142815 42.001273 
L 139.947174 42.001273 
L 139.751533 42.001273 
L 139.555892 42.001273 
L 139.360251 42.001273 
L 139.16461 42.001273 
L 138.968969 42.001273 
L 138.773327 42.001273 
L 138.577686 42.001273 
L 138.382045 42.001273 
L 138.186404 42.001273 
L 137.990763 42.001273 
L 137.795122 42.001273 
L 137.599481 42.001273 
L 137.40384 42.001273 
L 137.208199 42.001273 
L 137.012558 42.001273 
L 136.816916 42.001273 
L 136.621275 42.001273 
L 136.425634 42.001273 
L 136.229993 42.001273 
L 136.034352 42.001273 
L 135.838711 42.001273 
L 135.64307 42.001273 
L 135.447429 42.001273 
L 135.251788 42.001273 
L 135.056147 42.001273 
L 134.860506 42.001273 
L 134.664864 42.001273 
L 134.469223 42.001273 
L 134.273582 42.001273 
L 134.077941 42.001273 
L 133.8823 42.001273 
L 133.686659 42.001273 
L 133.491018 42.001273 
L 133.295377 42.001273 
L 133.099736 42.001273 
L 132.904095 42.001273 
L 132.708453 42.001273 
L 132.512812 42.001273 
L 132.317171 42.001273 
L 132.12153 42.001273 
L 131.925889 42.001273 
L 131.730248 42.001273 
L 131.534607 42.001273 
L 131.338966 42.001273 
L 131.143325 42.001273 
L 130.947684 42.001273 
L 130.752042 42.001273 
L 130.556401 42.001273 
L 130.36076 42.001273 
L 130.165119 42.001273 
L 129.969478 42.001273 
L 129.773837 42.001273 
L 129.578196 42.001273 
L 129.382555 42.001273 
L 129.186914 42.001273 
L 128.991273 42.001273 
L 128.795632 42.001273 
L 128.59999 42.001273 
L 128.404349 42.001273 
L 128.208708 42.001273 
L 128.013067 42.001273 
L 127.817426 42.001273 
L 127.621785 42.001273 
L 127.426144 42.001273 
L 127.230503 42.001273 
L 127.034862 42.001273 
L 126.839221 42.001273 
L 126.643579 42.001273 
L 126.447938 42.001273 
L 126.252297 42.001273 
L 126.056656 42.001273 
L 125.861015 42.001273 
L 125.665374 42.001273 
L 125.469733 42.001273 
L 125.274092 42.001273 
L 125.078451 42.001273 
L 124.88281 42.001273 
L 124.687169 42.001273 
L 124.491527 42.001273 
L 124.295886 42.001273 
L 124.100245 42.001273 
L 123.904604 42.001273 
L 123.708963 42.001273 
L 123.513322 43.861788 
L 123.317681 43.861788 
L 123.12204 43.861788 
L 122.926399 43.861788 
L 122.730758 43.861788 
L 122.535116 43.898345 
L 122.339475 43.898345 
L 122.143834 43.898345 
L 121.948193 43.898345 
L 121.752552 43.935437 
L 121.556911 43.935437 
L 121.36127 43.935902 
L 121.165629 43.935902 
L 120.969988 43.935902 
L 120.774347 43.935902 
L 120.578706 43.936376 
L 120.383064 43.955243 
L 120.187423 43.955243 
L 119.991782 43.974976 
L 119.796141 43.99511 
L 119.6005 43.99511 
L 119.404859 44.01566 
L 119.209218 44.01566 
L 119.013577 44.01566 
L 118.817936 44.01566 
L 118.622295 44.016174 
L 118.426653 44.016174 
L 118.231012 44.016174 
L 118.035371 44.016174 
L 117.83973 44.016174 
L 117.644089 44.016174 
L 117.448448 44.016174 
L 117.252807 44.016174 
L 117.057166 44.016174 
L 116.861525 44.016174 
L 116.665884 44.016174 
L 116.470243 44.036638 
L 116.274601 44.036638 
L 116.07896 44.079397 
L 115.883319 44.079397 
L 115.687678 44.08048 
L 115.492037 44.08048 
L 115.296396 44.08048 
L 115.100755 44.08048 
L 114.905114 44.08048 
L 114.709473 44.102837 
L 114.513832 44.102837 
L 114.31819 44.125109 
L 114.122549 44.12568 
L 113.926908 44.12568 
L 113.731267 44.12568 
L 113.535626 44.12568 
L 113.339985 44.12568 
L 113.144344 44.12568 
L 112.948703 44.12568 
L 112.753062 44.12568 
L 112.557421 44.12568 
L 112.36178 44.148441 
L 112.166138 44.148441 
L 111.970497 44.148441 
L 111.774856 44.148441 
L 111.579215 44.172292 
L 111.383574 44.172292 
L 111.187933 44.172292 
L 110.992292 44.172292 
L 110.796651 44.172889 
L 110.60101 44.172889 
L 110.405369 44.172889 
L 110.209727 44.172889 
L 110.014086 44.196679 
L 109.818445 44.196679 
L 109.622804 44.196679 
L 109.427163 44.196679 
L 109.231522 44.197289 
L 109.035881 44.197289 
L 108.84024 44.197289 
L 108.644599 44.197289 
L 108.448958 44.197289 
L 108.253316 44.197289 
L 108.057675 44.197289 
L 107.862034 44.197289 
L 107.666393 44.197289 
L 107.470752 44.197289 
L 107.275111 44.197289 
L 107.07947 44.197289 
L 106.883829 44.197289 
L 106.688188 44.197289 
L 106.492547 44.197289 
L 106.296906 44.197289 
L 106.101264 44.197289 
L 105.905623 44.197289 
L 105.709982 44.197289 
L 105.514341 44.197289 
L 105.3187 44.197289 
L 105.123059 44.197289 
L 104.927418 44.197289 
L 104.731777 44.197289 
L 104.536136 44.22162 
L 104.340495 44.22162 
L 104.144853 44.247134 
L 103.949212 44.247772 
L 103.753571 44.247772 
L 103.55793 44.273241 
L 103.362289 44.273241 
L 103.166648 44.273241 
L 102.971007 44.273241 
L 102.775366 44.273241 
L 102.579725 44.273241 
L 102.384084 44.273241 
L 102.188443 44.326652 
L 101.992801 44.326652 
L 101.79716 44.326652 
L 101.601519 44.326652 
L 101.405878 44.326652 
L 101.210237 44.326652 
L 101.014596 44.326652 
L 100.818955 44.32732 
L 100.623314 44.32732 
L 100.427673 44.32732 
L 100.232032 44.32732 
L 100.03639 44.383335 
L 99.840749 44.442851 
L 99.645108 45.726952 
L 99.449467 45.795418 
L 99.253826 45.795418 
L 99.058185 45.79633 
L 98.862544 45.832606 
L 98.666903 45.832606 
L 98.471262 45.832606 
L 98.275621 45.832606 
L 98.07998 45.833537 
L 97.884338 45.833537 
L 97.688697 45.833537 
L 97.493056 45.833537 
L 97.297415 45.833537 
L 97.101774 45.833537 
L 96.906133 45.833537 
L 96.710492 45.833537 
L 96.514851 45.87148 
L 96.31921 45.87148 
L 96.123569 45.87148 
L 95.927927 45.87148 
L 95.732286 45.87148 
L 95.536645 45.87148 
L 95.341004 45.87148 
L 95.145363 45.909214 
L 94.949722 45.910182 
L 94.754081 45.910182 
L 94.55844 45.910182 
L 94.362799 45.910182 
L 94.167158 45.910182 
L 93.971517 45.910182 
L 93.775875 45.910182 
L 93.580234 45.910182 
L 93.384593 45.910182 
L 93.188952 45.910182 
L 92.993311 45.910182 
L 92.79767 45.948679 
L 92.602029 45.948679 
L 92.406388 45.949666 
L 92.210747 45.949666 
L 92.015106 45.949666 
L 91.819464 46.029041 
L 91.623823 46.029041 
L 91.428182 46.029041 
L 91.232541 46.073053 
L 91.0369 46.073053 
L 90.841259 46.073053 
L 90.645618 46.073053 
L 90.449977 46.073053 
L 90.254336 46.073053 
L 90.058695 46.073053 
L 89.863054 46.073053 
L 89.667412 46.073053 
L 89.471771 46.073053 
L 89.27613 46.073053 
L 89.080489 46.114842 
L 88.884848 46.114842 
L 88.689207 46.114842 
L 88.493566 46.114842 
L 88.297925 46.115914 
L 88.102284 46.115914 
L 87.906643 46.158592 
L 87.711001 46.158592 
L 87.51536 46.158592 
L 87.319719 46.158592 
L 87.124078 46.158592 
L 86.928437 46.159687 
L 86.732796 46.159687 
L 86.537155 46.159687 
L 86.341514 46.250087 
L 86.145873 46.250087 
L 85.950232 46.250087 
L 85.75459 46.250087 
L 85.558949 46.250087 
L 85.363308 46.296777 
L 85.167667 46.296777 
L 84.972026 46.343312 
L 84.776385 46.343312 
L 84.580744 46.344505 
L 84.385103 46.392085 
L 84.189462 46.441967 
L 83.993821 46.441967 
L 83.79818 46.441967 
L 83.602538 46.441967 
L 83.406897 46.441967 
L 83.211256 46.443215 
L 83.015615 46.443215 
L 82.819974 46.54521 
L 82.624333 47.576122 
L 82.428692 47.576122 
L 82.233051 47.63778 
L 82.03741 47.63778 
L 81.841769 47.63778 
L 81.646127 47.63778 
L 81.450486 47.863185 
L 81.254845 47.864636 
L 81.059204 47.864636 
L 80.863563 47.864636 
L 80.667922 47.864636 
L 80.472281 47.922382 
L 80.27664 47.922382 
L 80.080999 47.922382 
L 79.885358 47.922382 
L 79.689717 48.171627 
L 79.494075 48.237252 
L 79.298434 48.237252 
L 79.102793 48.237252 
L 78.907152 48.238894 
L 78.711511 48.238894 
L 78.51587 48.372781 
L 78.320229 48.372781 
L 78.124588 48.374494 
L 77.928947 48.444529 
L 77.733306 48.444529 
L 77.537664 48.514331 
L 77.342023 48.587492 
L 77.146382 48.587492 
L 76.950741 48.587492 
L 76.7551 48.662314 
L 76.559459 48.662314 
L 76.363818 48.738857 
L 76.168177 48.817178 
L 75.972536 48.817178 
L 75.776895 48.817178 
L 75.581254 48.977409 
L 75.385612 48.977409 
L 75.189971 49.063464 
L 74.99433 49.699958 
L 74.798689 49.699958 
L 74.603048 49.699958 
L 74.407407 50.142734 
L 74.211766 50.405293 
L 74.016125 50.405293 
L 73.820484 50.405293 
L 73.624843 50.405293 
L 73.429201 50.407529 
L 73.23356 50.587663 
L 73.037919 50.592282 
L 72.842278 50.687737 
L 72.646637 50.687737 
L 72.450996 50.782898 
L 72.255355 50.885157 
L 72.059714 50.885157 
L 71.864073 50.984718 
L 71.668432 51.869788 
L 71.472791 52.1781 
L 71.277149 52.287876 
L 71.081508 52.287876 
L 70.885867 52.397308 
L 70.690226 52.424337 
L 70.494585 52.859354 
L 70.298944 53.099959 
L 70.103303 54.332728 
L 69.907662 54.610657 
L 69.712021 54.885277 
L 69.51638 55.327099 
L 69.320738 56.101986 
L 69.125097 56.300918 
L 68.929456 56.300918 
L 68.733815 57.202059 
L 68.538174 57.202059 
L 68.342533 57.202059 
L 68.146892 57.626051 
L 67.951251 57.948026 
L 67.75561 58.280084 
L 67.559969 58.626265 
L 67.364328 58.634928 
L 67.168686 58.889675 
L 66.973045 59.074346 
L 66.777404 59.972695 
L 66.581763 59.973269 
L 66.386122 59.973269 
L 66.190481 60.773584 
L 65.99484 61.112766 
L 65.799199 61.978908 
L 65.603558 63.696351 
L 65.407917 64.447547 
L 65.212275 66.166253 
L 65.016634 66.166253 
L 64.820993 67.036425 
L 64.625352 69.899775 
L 64.429711 70.209895 
L 64.23407 70.209895 
L 64.038429 71.713135 
L 63.842788 71.889182 
L 63.647147 73.073116 
L 63.451506 75.297331 
L 63.255865 76.830986 
L 63.060223 78.469799 
L 62.864582 78.914985 
L 62.668941 79.736805 
L 62.4733 80.185766 
L 62.277659 80.282087 
L 62.082018 80.282087 
L 61.886377 80.282087 
L 61.690736 80.282087 
L 61.495095 80.282087 
L 61.299454 80.282087 
L 61.103812 81.495809 
L 60.908171 83.26198 
L 60.71253 84.571447 
L 60.516889 88.96737 
L 60.321248 91.934723 
L 60.125607 92.982795 
L 59.929966 92.987043 
L 59.734325 92.987043 
L 59.538684 92.987043 
L 59.343043 92.987043 
L 59.147401 92.987043 
L 58.95176 92.987043 
L 58.756119 92.987043 
L 58.560478 92.987043 
L 58.364837 92.987043 
L 58.169196 92.987043 
L 57.973555 92.987043 
L 57.777914 92.987043 
L 57.582273 92.987043 
z
" clip-path="url(#pcb43725e02)" style="fill: #1f77b4; fill-opacity: 0.5"/>
   </g>
   <g id="matplotlib.axis_1">
    <g id="xtick_1">
     <g id="line2d_1">
      <defs>
       <path id="me3c6648363" d="M 0 0 
L 0 3.5 
" style="stroke: #000000; stroke-width: 0.8"/>
      </defs>
      <g>
       <use xlink:href="#me3c6648363" x="57.582273" y="247.219" style="stroke: #000000; stroke-width: 0.8"/>
      </g>
     </g>
     <g id="text_1">
      <!-- 0.0 -->
      <g transform="translate(49.63071 261.817437) scale(0.1 -0.1)">
       <defs>
        <path id="DejaVuSans-30" d="M 2034 4250 
Q 1547 4250 1301 3770 
Q 1056 3291 1056 2328 
Q 1056 1369 1301 889 
Q 1547 409 2034 409 
Q 2525 409 2770 889 
Q 3016 1369 3016 2328 
Q 3016 3291 2770 3770 
Q 2525 4250 2034 4250 
z
M 2034 4750 
Q 2819 4750 3233 4129 
Q 3647 3509 3647 2328 
Q 3647 1150 3233 529 
Q 2819 -91 2034 -91 
Q 1250 -91 836 529 
Q 422 1150 422 2328 
Q 422 3509 836 4129 
Q 1250 4750 2034 4750 
z
" transform="scale(0.015625)"/>
        <path id="DejaVuSans-2e" d="M 684 794 
L 1344 794 
L 1344 0 
L 684 0 
L 684 794 
z
" transform="scale(0.015625)"/>
       </defs>
       <use xlink:href="#DejaVuSans-30"/>
       <use xlink:href="#DejaVuSans-2e" x="63.623047"/>
       <use xlink:href="#DejaVuSans-30" x="95.410156"/>
      </g>
     </g>
    </g>
    <g id="xtick_2">
     <g id="line2d_2">
      <g>
       <use xlink:href="#me3c6648363" x="96.671364" y="247.219" style="stroke: #000000; stroke-width: 0.8"/>
      </g>
     </g>
     <g id="text_2">
      <!-- 0.2 -->
      <g transform="translate(88.719801 261.817437) scale(0.1 -0.1)">
       <defs>
        <path id="DejaVuSans-32" d="M 1228 531 
L 3431 531 
L 3431 0 
L 469 0 
L 469 531 
Q 828 903 1448 1529 
Q 2069 2156 2228 2338 
Q 2531 2678 2651 2914 
Q 2772 3150 2772 3378 
Q 2772 3750 2511 3984 
Q 2250 4219 1831 4219 
Q 1534 4219 1204 4116 
Q 875 4013 500 3803 
L 500 4441 
Q 881 4594 1212 4672 
Q 1544 4750 1819 4750 
Q 2544 4750 2975 4387 
Q 3406 4025 3406 3419 
Q 3406 3131 3298 2873 
Q 3191 2616 2906 2266 
Q 2828 2175 2409 1742 
Q 1991 1309 1228 531 
z
" transform="scale(0.015625)"/>
       </defs>
       <use xlink:href="#DejaVuSans-30"/>
       <use xlink:href="#DejaVuSans-2e" x="63.623047"/>
       <use xlink:href="#DejaVuSans-32" x="95.410156"/>
      </g>
     </g>
    </g>
    <g id="xtick_3">
     <g id="line2d_3">
      <g>
       <use xlink:href="#me3c6648363" x="135.760455" y="247.219" style="stroke: #000000; stroke-width: 0.8"/>
      </g>
     </g>
     <g id="text_3">
      <!-- 0.4 -->
      <g transform="translate(127.808892 261.817437) scale(0.1 -0.1)">
       <defs>
        <path id="DejaVuSans-34" d="M 2419 4116 
L 825 1625 
L 2419 1625 
L 2419 4116 
z
M 2253 4666 
L 3047 4666 
L 3047 1625 
L 3713 1625 
L 3713 1100 
L 3047 1100 
L 3047 0 
L 2419 0 
L 2419 1100 
L 313 1100 
L 313 1709 
L 2253 4666 
z
" transform="scale(0.015625)"/>
       </defs>
       <use xlink:href="#DejaVuSans-30"/>
       <use xlink:href="#DejaVuSans-2e" x="63.623047"/>
       <use xlink:href="#DejaVuSans-34" x="95.410156"/>
      </g>
     </g>
    </g>
    <g id="xtick_4">
     <g id="line2d_4">
      <g>
       <use xlink:href="#me3c6648363" x="174.849545" y="247.219" style="stroke: #000000; stroke-width: 0.8"/>
      </g>
     </g>
     <g id="text_4">
      <!-- 0.6 -->
      <g transform="translate(166.897983 261.817437) scale(0.1 -0.1)">
       <defs>
        <path id="DejaVuSans-36" d="M 2113 2584 
Q 1688 2584 1439 2293 
Q 1191 2003 1191 1497 
Q 1191 994 1439 701 
Q 1688 409 2113 409 
Q 2538 409 2786 701 
Q 3034 994 3034 1497 
Q 3034 2003 2786 2293 
Q 2538 2584 2113 2584 
z
M 3366 4563 
L 3366 3988 
Q 3128 4100 2886 4159 
Q 2644 4219 2406 4219 
Q 1781 4219 1451 3797 
Q 1122 3375 1075 2522 
Q 1259 2794 1537 2939 
Q 1816 3084 2150 3084 
Q 2853 3084 3261 2657 
Q 3669 2231 3669 1497 
Q 3669 778 3244 343 
Q 2819 -91 2113 -91 
Q 1303 -91 875 529 
Q 447 1150 447 2328 
Q 447 3434 972 4092 
Q 1497 4750 2381 4750 
Q 2619 4750 2861 4703 
Q 3103 4656 3366 4563 
z
" transform="scale(0.015625)"/>
       </defs>
       <use xlink:href="#DejaVuSans-30"/>
       <use xlink:href="#DejaVuSans-2e" x="63.623047"/>
       <use xlink:href="#DejaVuSans-36" x="95.410156"/>
      </g>
     </g>
    </g>
    <g id="xtick_5">
     <g id="line2d_5">
      <g>
       <use xlink:href="#me3c6648363" x="213.938636" y="247.219" style="stroke: #000000; stroke-width: 0.8"/>
      </g>
     </g>
     <g id="text_5">
      <!-- 0.8 -->
      <g transform="translate(205.987074 261.817437) scale(0.1 -0.1)">
       <defs>
        <path id="DejaVuSans-38" d="M 2034 2216 
Q 1584 2216 1326 1975 
Q 1069 1734 1069 1313 
Q 1069 891 1326 650 
Q 1584 409 2034 409 
Q 2484 409 2743 651 
Q 3003 894 3003 1313 
Q 3003 1734 2745 1975 
Q 2488 2216 2034 2216 
z
M 1403 2484 
Q 997 2584 770 2862 
Q 544 3141 544 3541 
Q 544 4100 942 4425 
Q 1341 4750 2034 4750 
Q 2731 4750 3128 4425 
Q 3525 4100 3525 3541 
Q 3525 3141 3298 2862 
Q 3072 2584 2669 2484 
Q 3125 2378 3379 2068 
Q 3634 1759 3634 1313 
Q 3634 634 3220 271 
Q 2806 -91 2034 -91 
Q 1263 -91 848 271 
Q 434 634 434 1313 
Q 434 1759 690 2068 
Q 947 2378 1403 2484 
z
M 1172 3481 
Q 1172 3119 1398 2916 
Q 1625 2713 2034 2713 
Q 2441 2713 2670 2916 
Q 2900 3119 2900 3481 
Q 2900 3844 2670 4047 
Q 2441 4250 2034 4250 
Q 1625 4250 1398 4047 
Q 1172 3844 1172 3481 
z
" transform="scale(0.015625)"/>
       </defs>
       <use xlink:href="#DejaVuSans-30"/>
       <use xlink:href="#DejaVuSans-2e" x="63.623047"/>
       <use xlink:href="#DejaVuSans-38" x="95.410156"/>
      </g>
     </g>
    </g>
    <g id="xtick_6">
     <g id="line2d_6">
      <g>
       <use xlink:href="#me3c6648363" x="253.027727" y="247.219" style="stroke: #000000; stroke-width: 0.8"/>
      </g>
     </g>
     <g id="text_6">
      <!-- 1.0 -->
      <g transform="translate(245.076165 261.817437) scale(0.1 -0.1)">
       <defs>
        <path id="DejaVuSans-31" d="M 794 531 
L 1825 531 
L 1825 4091 
L 703 3866 
L 703 4441 
L 1819 4666 
L 2450 4666 
L 2450 531 
L 3481 531 
L 3481 0 
L 794 0 
L 794 531 
z
" transform="scale(0.015625)"/>
       </defs>
       <use xlink:href="#DejaVuSans-31"/>
       <use xlink:href="#DejaVuSans-2e" x="63.623047"/>
       <use xlink:href="#DejaVuSans-30" x="95.410156"/>
      </g>
     </g>
    </g>
    <g id="text_7">
     <!-- False Positive Rate -->
     <g transform="translate(108.838594 275.495563) scale(0.1 -0.1)">
      <defs>
       <path id="DejaVuSans-46" d="M 628 4666 
L 3309 4666 
L 3309 4134 
L 1259 4134 
L 1259 2759 
L 3109 2759 
L 3109 2228 
L 1259 2228 
L 1259 0 
L 628 0 
L 628 4666 
z
" transform="scale(0.015625)"/>
       <path id="DejaVuSans-61" d="M 2194 1759 
Q 1497 1759 1228 1600 
Q 959 1441 959 1056 
Q 959 750 1161 570 
Q 1363 391 1709 391 
Q 2188 391 2477 730 
Q 2766 1069 2766 1631 
L 2766 1759 
L 2194 1759 
z
M 3341 1997 
L 3341 0 
L 2766 0 
L 2766 531 
Q 2569 213 2275 61 
Q 1981 -91 1556 -91 
Q 1019 -91 701 211 
Q 384 513 384 1019 
Q 384 1609 779 1909 
Q 1175 2209 1959 2209 
L 2766 2209 
L 2766 2266 
Q 2766 2663 2505 2880 
Q 2244 3097 1772 3097 
Q 1472 3097 1187 3025 
Q 903 2953 641 2809 
L 641 3341 
Q 956 3463 1253 3523 
Q 1550 3584 1831 3584 
Q 2591 3584 2966 3190 
Q 3341 2797 3341 1997 
z
" transform="scale(0.015625)"/>
       <path id="DejaVuSans-6c" d="M 603 4863 
L 1178 4863 
L 1178 0 
L 603 0 
L 603 4863 
z
" transform="scale(0.015625)"/>
       <path id="DejaVuSans-73" d="M 2834 3397 
L 2834 2853 
Q 2591 2978 2328 3040 
Q 2066 3103 1784 3103 
Q 1356 3103 1142 2972 
Q 928 2841 928 2578 
Q 928 2378 1081 2264 
Q 1234 2150 1697 2047 
L 1894 2003 
Q 2506 1872 2764 1633 
Q 3022 1394 3022 966 
Q 3022 478 2636 193 
Q 2250 -91 1575 -91 
Q 1294 -91 989 -36 
Q 684 19 347 128 
L 347 722 
Q 666 556 975 473 
Q 1284 391 1588 391 
Q 1994 391 2212 530 
Q 2431 669 2431 922 
Q 2431 1156 2273 1281 
Q 2116 1406 1581 1522 
L 1381 1569 
Q 847 1681 609 1914 
Q 372 2147 372 2553 
Q 372 3047 722 3315 
Q 1072 3584 1716 3584 
Q 2034 3584 2315 3537 
Q 2597 3491 2834 3397 
z
" transform="scale(0.015625)"/>
       <path id="DejaVuSans-65" d="M 3597 1894 
L 3597 1613 
L 953 1613 
Q 991 1019 1311 708 
Q 1631 397 2203 397 
Q 2534 397 2845 478 
Q 3156 559 3463 722 
L 3463 178 
Q 3153 47 2828 -22 
Q 2503 -91 2169 -91 
Q 1331 -91 842 396 
Q 353 884 353 1716 
Q 353 2575 817 3079 
Q 1281 3584 2069 3584 
Q 2775 3584 3186 3129 
Q 3597 2675 3597 1894 
z
M 3022 2063 
Q 3016 2534 2758 2815 
Q 2500 3097 2075 3097 
Q 1594 3097 1305 2825 
Q 1016 2553 972 2059 
L 3022 2063 
z
" transform="scale(0.015625)"/>
       <path id="DejaVuSans-20" transform="scale(0.015625)"/>
       <path id="DejaVuSans-50" d="M 1259 4147 
L 1259 2394 
L 2053 2394 
Q 2494 2394 2734 2622 
Q 2975 2850 2975 3272 
Q 2975 3691 2734 3919 
Q 2494 4147 2053 4147 
L 1259 4147 
z
M 628 4666 
L 2053 4666 
Q 2838 4666 3239 4311 
Q 3641 3956 3641 3272 
Q 3641 2581 3239 2228 
Q 2838 1875 2053 1875 
L 1259 1875 
L 1259 0 
L 628 0 
L 628 4666 
z
" transform="scale(0.015625)"/>
       <path id="DejaVuSans-6f" d="M 1959 3097 
Q 1497 3097 1228 2736 
Q 959 2375 959 1747 
Q 959 1119 1226 758 
Q 1494 397 1959 397 
Q 2419 397 2687 759 
Q 2956 1122 2956 1747 
Q 2956 2369 2687 2733 
Q 2419 3097 1959 3097 
z
M 1959 3584 
Q 2709 3584 3137 3096 
Q 3566 2609 3566 1747 
Q 3566 888 3137 398 
Q 2709 -91 1959 -91 
Q 1206 -91 779 398 
Q 353 888 353 1747 
Q 353 2609 779 3096 
Q 1206 3584 1959 3584 
z
" transform="scale(0.015625)"/>
       <path id="DejaVuSans-69" d="M 603 3500 
L 1178 3500 
L 1178 0 
L 603 0 
L 603 3500 
z
M 603 4863 
L 1178 4863 
L 1178 4134 
L 603 4134 
L 603 4863 
z
" transform="scale(0.015625)"/>
       <path id="DejaVuSans-74" d="M 1172 4494 
L 1172 3500 
L 2356 3500 
L 2356 3053 
L 1172 3053 
L 1172 1153 
Q 1172 725 1289 603 
Q 1406 481 1766 481 
L 2356 481 
L 2356 0 
L 1766 0 
Q 1100 0 847 248 
Q 594 497 594 1153 
L 594 3053 
L 172 3053 
L 172 3500 
L 594 3500 
L 594 4494 
L 1172 4494 
z
" transform="scale(0.015625)"/>
       <path id="DejaVuSans-76" d="M 191 3500 
L 800 3500 
L 1894 563 
L 2988 3500 
L 3597 3500 
L 2284 0 
L 1503 0 
L 191 3500 
z
" transform="scale(0.015625)"/>
       <path id="DejaVuSans-52" d="M 2841 2188 
Q 3044 2119 3236 1894 
Q 3428 1669 3622 1275 
L 4263 0 
L 3584 0 
L 2988 1197 
Q 2756 1666 2539 1819 
Q 2322 1972 1947 1972 
L 1259 1972 
L 1259 0 
L 628 0 
L 628 4666 
L 2053 4666 
Q 2853 4666 3247 4331 
Q 3641 3997 3641 3322 
Q 3641 2881 3436 2590 
Q 3231 2300 2841 2188 
z
M 1259 4147 
L 1259 2491 
L 2053 2491 
Q 2509 2491 2742 2702 
Q 2975 2913 2975 3322 
Q 2975 3731 2742 3939 
Q 2509 4147 2053 4147 
L 1259 4147 
z
" transform="scale(0.015625)"/>
      </defs>
      <use xlink:href="#DejaVuSans-46"/>
      <use xlink:href="#DejaVuSans-61" x="48.394531"/>
      <use xlink:href="#DejaVuSans-6c" x="109.673828"/>
      <use xlink:href="#DejaVuSans-73" x="137.457031"/>
      <use xlink:href="#DejaVuSans-65" x="189.556641"/>
      <use xlink:href="#DejaVuSans-20" x="251.080078"/>
      <use xlink:href="#DejaVuSans-50" x="282.867188"/>
      <use xlink:href="#DejaVuSans-6f" x="339.544922"/>
      <use xlink:href="#DejaVuSans-73" x="400.726562"/>
      <use xlink:href="#DejaVuSans-69" x="452.826172"/>
      <use xlink:href="#DejaVuSans-74" x="480.609375"/>
      <use xlink:href="#DejaVuSans-69" x="519.818359"/>
      <use xlink:href="#DejaVuSans-76" x="547.601562"/>
      <use xlink:href="#DejaVuSans-65" x="606.78125"/>
      <use xlink:href="#DejaVuSans-20" x="668.304688"/>
      <use xlink:href="#DejaVuSans-52" x="700.091797"/>
      <use xlink:href="#DejaVuSans-61" x="767.324219"/>
      <use xlink:href="#DejaVuSans-74" x="828.603516"/>
      <use xlink:href="#DejaVuSans-65" x="867.8125"/>
     </g>
    </g>
   </g>
   <g id="matplotlib.axis_2">
    <g id="ytick_1">
     <g id="line2d_7">
      <defs>
       <path id="m4959a93b11" d="M 0 0 
L -3.5 0 
" style="stroke: #000000; stroke-width: 0.8"/>
      </defs>
      <g>
       <use xlink:href="#m4959a93b11" x="47.81" y="237.446727" style="stroke: #000000; stroke-width: 0.8"/>
      </g>
     </g>
     <g id="text_8">
      <!-- 0.0 -->
      <g transform="translate(24.906875 241.245946) scale(0.1 -0.1)">
       <use xlink:href="#DejaVuSans-30"/>
       <use xlink:href="#DejaVuSans-2e" x="63.623047"/>
       <use xlink:href="#DejaVuSans-30" x="95.410156"/>
      </g>
     </g>
    </g>
    <g id="ytick_2">
     <g id="line2d_8">
      <g>
       <use xlink:href="#m4959a93b11" x="47.81" y="198.357636" style="stroke: #000000; stroke-width: 0.8"/>
      </g>
     </g>
     <g id="text_9">
      <!-- 0.2 -->
      <g transform="translate(24.906875 202.156855) scale(0.1 -0.1)">
       <use xlink:href="#DejaVuSans-30"/>
       <use xlink:href="#DejaVuSans-2e" x="63.623047"/>
       <use xlink:href="#DejaVuSans-32" x="95.410156"/>
      </g>
     </g>
    </g>
    <g id="ytick_3">
     <g id="line2d_9">
      <g>
       <use xlink:href="#m4959a93b11" x="47.81" y="159.268545" style="stroke: #000000; stroke-width: 0.8"/>
      </g>
     </g>
     <g id="text_10">
      <!-- 0.4 -->
      <g transform="translate(24.906875 163.067764) scale(0.1 -0.1)">
       <use xlink:href="#DejaVuSans-30"/>
       <use xlink:href="#DejaVuSans-2e" x="63.623047"/>
       <use xlink:href="#DejaVuSans-34" x="95.410156"/>
      </g>
     </g>
    </g>
    <g id="ytick_4">
     <g id="line2d_10">
      <g>
       <use xlink:href="#m4959a93b11" x="47.81" y="120.179455" style="stroke: #000000; stroke-width: 0.8"/>
      </g>
     </g>
     <g id="text_11">
      <!-- 0.6 -->
      <g transform="translate(24.906875 123.978673) scale(0.1 -0.1)">
       <use xlink:href="#DejaVuSans-30"/>
       <use xlink:href="#DejaVuSans-2e" x="63.623047"/>
       <use xlink:href="#DejaVuSans-36" x="95.410156"/>
      </g>
     </g>
    </g>
    <g id="ytick_5">
     <g id="line2d_11">
      <g>
       <use xlink:href="#m4959a93b11" x="47.81" y="81.090364" style="stroke: #000000; stroke-width: 0.8"/>
      </g>
     </g>
     <g id="text_12">
      <!-- 0.8 -->
      <g transform="translate(24.906875 84.889582) scale(0.1 -0.1)">
       <use xlink:href="#DejaVuSans-30"/>
       <use xlink:href="#DejaVuSans-2e" x="63.623047"/>
       <use xlink:href="#DejaVuSans-38" x="95.410156"/>
      </g>
     </g>
    </g>
    <g id="ytick_6">
     <g id="line2d_12">
      <g>
       <use xlink:href="#m4959a93b11" x="47.81" y="42.001273" style="stroke: #000000; stroke-width: 0.8"/>
      </g>
     </g>
     <g id="text_13">
      <!-- 1.0 -->
      <g transform="translate(24.906875 45.800491) scale(0.1 -0.1)">
       <use xlink:href="#DejaVuSans-31"/>
       <use xlink:href="#DejaVuSans-2e" x="63.623047"/>
       <use xlink:href="#DejaVuSans-30" x="95.410156"/>
      </g>
     </g>
    </g>
    <g id="text_14">
     <!-- True Positive Rate -->
     <g transform="translate(18.827187 184.253687) rotate(-90) scale(0.1 -0.1)">
      <defs>
       <path id="DejaVuSans-54" d="M -19 4666 
L 3928 4666 
L 3928 4134 
L 2272 4134 
L 2272 0 
L 1638 0 
L 1638 4134 
L -19 4134 
L -19 4666 
z
" transform="scale(0.015625)"/>
       <path id="DejaVuSans-72" d="M 2631 2963 
Q 2534 3019 2420 3045 
Q 2306 3072 2169 3072 
Q 1681 3072 1420 2755 
Q 1159 2438 1159 1844 
L 1159 0 
L 581 0 
L 581 3500 
L 1159 3500 
L 1159 2956 
Q 1341 3275 1631 3429 
Q 1922 3584 2338 3584 
Q 2397 3584 2469 3576 
Q 2541 3569 2628 3553 
L 2631 2963 
z
" transform="scale(0.015625)"/>
       <path id="DejaVuSans-75" d="M 544 1381 
L 544 3500 
L 1119 3500 
L 1119 1403 
Q 1119 906 1312 657 
Q 1506 409 1894 409 
Q 2359 409 2629 706 
Q 2900 1003 2900 1516 
L 2900 3500 
L 3475 3500 
L 3475 0 
L 2900 0 
L 2900 538 
Q 2691 219 2414 64 
Q 2138 -91 1772 -91 
Q 1169 -91 856 284 
Q 544 659 544 1381 
z
M 1991 3584 
L 1991 3584 
z
" transform="scale(0.015625)"/>
      </defs>
      <use xlink:href="#DejaVuSans-54"/>
      <use xlink:href="#DejaVuSans-72" x="46.333984"/>
      <use xlink:href="#DejaVuSans-75" x="87.447266"/>
      <use xlink:href="#DejaVuSans-65" x="150.826172"/>
      <use xlink:href="#DejaVuSans-20" x="212.349609"/>
      <use xlink:href="#DejaVuSans-50" x="244.136719"/>
      <use xlink:href="#DejaVuSans-6f" x="300.814453"/>
      <use xlink:href="#DejaVuSans-73" x="361.996094"/>
      <use xlink:href="#DejaVuSans-69" x="414.095703"/>
      <use xlink:href="#DejaVuSans-74" x="441.878906"/>
      <use xlink:href="#DejaVuSans-69" x="481.087891"/>
      <use xlink:href="#DejaVuSans-76" x="508.871094"/>
      <use xlink:href="#DejaVuSans-65" x="568.050781"/>
      <use xlink:href="#DejaVuSans-20" x="629.574219"/>
      <use xlink:href="#DejaVuSans-52" x="661.361328"/>
      <use xlink:href="#DejaVuSans-61" x="728.59375"/>
      <use xlink:href="#DejaVuSans-74" x="789.873047"/>
      <use xlink:href="#DejaVuSans-65" x="829.082031"/>
     </g>
    </g>
   </g>
   <g id="line2d_13">
    <path d="M 57.582273 237.446727 
L 57.582273 235.32232 
L 57.582273 141.848407 
L 60.589126 141.848407 
L 60.589126 122.728743 
L 63.595979 122.728743 
L 63.595979 112.106708 
L 66.602832 112.106708 
L 66.602832 99.360265 
L 69.609685 99.360265 
L 69.609685 92.987043 
L 72.616538 92.987043 
L 72.616538 82.365008 
L 78.630245 82.365008 
L 78.630245 61.120937 
L 81.637098 61.120937 
L 81.637098 56.872123 
L 90.657657 56.872123 
L 90.657657 54.747715 
L 93.66451 54.747715 
L 93.66451 52.623308 
L 120.726189 52.623308 
L 120.726189 50.498901 
L 132.753601 50.498901 
L 132.753601 48.374494 
L 138.767308 48.374494 
L 138.767308 46.250087 
L 177.856399 46.250087 
L 177.856399 44.12568 
L 222.959196 44.12568 
L 222.959196 42.001273 
L 253.027727 42.001273 
" clip-path="url(#pcb43725e02)" style="fill: none; stroke: #1f77b4; stroke-width: 1.5; stroke-linecap: square"/>
   </g>
   <g id="line2d_14">
    <path d="M 57.582273 237.446727 
L 253.027727 42.001273 
" clip-path="url(#pcb43725e02)" style="fill: none; stroke-dasharray: 5.55,2.4; stroke-dashoffset: 0; stroke: #ff0000; stroke-width: 1.5"/>
   </g>
   <g id="patch_3">
    <path d="M 47.81 247.219 
L 47.81 32.229 
" style="fill: none; stroke: #000000; stroke-width: 0.8; stroke-linejoin: miter; stroke-linecap: square"/>
   </g>
   <g id="patch_4">
    <path d="M 262.8 247.219 
L 262.8 32.229 
" style="fill: none; stroke: #000000; stroke-width: 0.8; stroke-linejoin: miter; stroke-linecap: square"/>
   </g>
   <g id="patch_5">
    <path d="M 47.81 247.219 
L 262.8 247.219 
" style="fill: none; stroke: #000000; stroke-width: 0.8; stroke-linejoin: miter; stroke-linecap: square"/>
   </g>
   <g id="patch_6">
    <path d="M 47.81 32.229 
L 262.8 32.229 
" style="fill: none; stroke: #000000; stroke-width: 0.8; stroke-linejoin: miter; stroke-linecap: square"/>
   </g>
   <g id="text_15">
    <!-- IDH = MUT -->
    <g transform="translate(122.328437 26.229) scale(0.12 -0.12)">
     <defs>
      <path id="DejaVuSans-49" d="M 628 4666 
L 1259 4666 
L 1259 0 
L 628 0 
L 628 4666 
z
" transform="scale(0.015625)"/>
      <path id="DejaVuSans-44" d="M 1259 4147 
L 1259 519 
L 2022 519 
Q 2988 519 3436 956 
Q 3884 1394 3884 2338 
Q 3884 3275 3436 3711 
Q 2988 4147 2022 4147 
L 1259 4147 
z
M 628 4666 
L 1925 4666 
Q 3281 4666 3915 4102 
Q 4550 3538 4550 2338 
Q 4550 1131 3912 565 
Q 3275 0 1925 0 
L 628 0 
L 628 4666 
z
" transform="scale(0.015625)"/>
      <path id="DejaVuSans-48" d="M 628 4666 
L 1259 4666 
L 1259 2753 
L 3553 2753 
L 3553 4666 
L 4184 4666 
L 4184 0 
L 3553 0 
L 3553 2222 
L 1259 2222 
L 1259 0 
L 628 0 
L 628 4666 
z
" transform="scale(0.015625)"/>
      <path id="DejaVuSans-3d" d="M 678 2906 
L 4684 2906 
L 4684 2381 
L 678 2381 
L 678 2906 
z
M 678 1631 
L 4684 1631 
L 4684 1100 
L 678 1100 
L 678 1631 
z
" transform="scale(0.015625)"/>
      <path id="DejaVuSans-4d" d="M 628 4666 
L 1569 4666 
L 2759 1491 
L 3956 4666 
L 4897 4666 
L 4897 0 
L 4281 0 
L 4281 4097 
L 3078 897 
L 2444 897 
L 1241 4097 
L 1241 0 
L 628 0 
L 628 4666 
z
" transform="scale(0.015625)"/>
      <path id="DejaVuSans-55" d="M 556 4666 
L 1191 4666 
L 1191 1831 
Q 1191 1081 1462 751 
Q 1734 422 2344 422 
Q 2950 422 3222 751 
Q 3494 1081 3494 1831 
L 3494 4666 
L 4128 4666 
L 4128 1753 
Q 4128 841 3676 375 
Q 3225 -91 2344 -91 
Q 1459 -91 1007 375 
Q 556 841 556 1753 
L 556 4666 
z
" transform="scale(0.015625)"/>
     </defs>
     <use xlink:href="#DejaVuSans-49"/>
     <use xlink:href="#DejaVuSans-44" x="29.492188"/>
     <use xlink:href="#DejaVuSans-48" x="106.494141"/>
     <use xlink:href="#DejaVuSans-20" x="181.689453"/>
     <use xlink:href="#DejaVuSans-3d" x="213.476562"/>
     <use xlink:href="#DejaVuSans-20" x="297.265625"/>
     <use xlink:href="#DejaVuSans-4d" x="329.052734"/>
     <use xlink:href="#DejaVuSans-55" x="415.332031"/>
     <use xlink:href="#DejaVuSans-54" x="488.525391"/>
    </g>
   </g>
   <g id="legend_1">
    <g id="patch_7">
     <path d="M 131.1 242.219 
L 255.8 242.219 
Q 257.8 242.219 257.8 240.219 
L 257.8 226.540875 
Q 257.8 224.540875 255.8 224.540875 
L 131.1 224.540875 
Q 129.1 224.540875 129.1 226.540875 
L 129.1 240.219 
Q 129.1 242.219 131.1 242.219 
z
" style="fill: #ffffff; opacity: 0.8; stroke: #cccccc; stroke-linejoin: miter"/>
    </g>
    <g id="line2d_15">
     <path d="M 133.1 232.639312 
L 143.1 232.639312 
L 153.1 232.639312 
" style="fill: none; stroke: #1f77b4; stroke-width: 1.5; stroke-linecap: square"/>
    </g>
    <g id="text_16">
     <!-- AUC = $0.94 \pm 0.04$ -->
     <g transform="translate(161.1 236.139312) scale(0.1 -0.1)">
      <defs>
       <path id="DejaVuSans-41" d="M 2188 4044 
L 1331 1722 
L 3047 1722 
L 2188 4044 
z
M 1831 4666 
L 2547 4666 
L 4325 0 
L 3669 0 
L 3244 1197 
L 1141 1197 
L 716 0 
L 50 0 
L 1831 4666 
z
" transform="scale(0.015625)"/>
       <path id="DejaVuSans-43" d="M 4122 4306 
L 4122 3641 
Q 3803 3938 3442 4084 
Q 3081 4231 2675 4231 
Q 1875 4231 1450 3742 
Q 1025 3253 1025 2328 
Q 1025 1406 1450 917 
Q 1875 428 2675 428 
Q 3081 428 3442 575 
Q 3803 722 4122 1019 
L 4122 359 
Q 3791 134 3420 21 
Q 3050 -91 2638 -91 
Q 1578 -91 968 557 
Q 359 1206 359 2328 
Q 359 3453 968 4101 
Q 1578 4750 2638 4750 
Q 3056 4750 3426 4639 
Q 3797 4528 4122 4306 
z
" transform="scale(0.015625)"/>
       <path id="DejaVuSans-39" d="M 703 97 
L 703 672 
Q 941 559 1184 500 
Q 1428 441 1663 441 
Q 2288 441 2617 861 
Q 2947 1281 2994 2138 
Q 2813 1869 2534 1725 
Q 2256 1581 1919 1581 
Q 1219 1581 811 2004 
Q 403 2428 403 3163 
Q 403 3881 828 4315 
Q 1253 4750 1959 4750 
Q 2769 4750 3195 4129 
Q 3622 3509 3622 2328 
Q 3622 1225 3098 567 
Q 2575 -91 1691 -91 
Q 1453 -91 1209 -44 
Q 966 3 703 97 
z
M 1959 2075 
Q 2384 2075 2632 2365 
Q 2881 2656 2881 3163 
Q 2881 3666 2632 3958 
Q 2384 4250 1959 4250 
Q 1534 4250 1286 3958 
Q 1038 3666 1038 3163 
Q 1038 2656 1286 2365 
Q 1534 2075 1959 2075 
z
" transform="scale(0.015625)"/>
       <path id="DejaVuSans-b1" d="M 2944 4013 
L 2944 2803 
L 4684 2803 
L 4684 2272 
L 2944 2272 
L 2944 1063 
L 2419 1063 
L 2419 2272 
L 678 2272 
L 678 2803 
L 2419 2803 
L 2419 4013 
L 2944 4013 
z
M 678 531 
L 4684 531 
L 4684 0 
L 678 0 
L 678 531 
z
" transform="scale(0.015625)"/>
      </defs>
      <use xlink:href="#DejaVuSans-41" transform="translate(0 0.78125)"/>
      <use xlink:href="#DejaVuSans-55" transform="translate(68.408203 0.78125)"/>
      <use xlink:href="#DejaVuSans-43" transform="translate(141.601562 0.78125)"/>
      <use xlink:href="#DejaVuSans-20" transform="translate(211.425781 0.78125)"/>
      <use xlink:href="#DejaVuSans-3d" transform="translate(243.212891 0.78125)"/>
      <use xlink:href="#DejaVuSans-20" transform="translate(327.001953 0.78125)"/>
      <use xlink:href="#DejaVuSans-30" transform="translate(358.789062 0.78125)"/>
      <use xlink:href="#DejaVuSans-2e" transform="translate(422.412109 0.78125)"/>
      <use xlink:href="#DejaVuSans-39" transform="translate(454.199219 0.78125)"/>
      <use xlink:href="#DejaVuSans-34" transform="translate(517.822266 0.78125)"/>
      <use xlink:href="#DejaVuSans-b1" transform="translate(600.927734 0.78125)"/>
      <use xlink:href="#DejaVuSans-30" transform="translate(704.199219 0.78125)"/>
      <use xlink:href="#DejaVuSans-2e" transform="translate(767.822266 0.78125)"/>
      <use xlink:href="#DejaVuSans-30" transform="translate(799.609375 0.78125)"/>
      <use xlink:href="#DejaVuSans-34" transform="translate(863.232422 0.78125)"/>
     </g>
    </g>
   </g>
  </g>
 </g>
 <defs>
  <clipPath id="pcb43725e02">
   <rect x="47.81" y="32.229" width="214.99" height="214.99"/>
  </clipPath>
 </defs>
</svg>
